<!DOCTYPE svg PUBLIC "-//W3C//DTD SVG 1.1//EN" "http://www.w3.org/Graphics/SVG/1.1/DTD/svg11.dtd">
<!-- Uploaded to: SVG Find, www.svgfind.com, Transformed by: SVG Find Mixer Tools -->
<svg width="800px" height="800px" version="1.1" viewBox="144 144 512 512" xmlns="http://www.w3.org/2000/svg" fill="#ffffff" stroke="#ffffff">
<g id="SVGRepo_bgCarrier" stroke-width="0"/>
<g id="SVGRepo_tracerCarrier" stroke-linecap="round" stroke-linejoin="round"/>
<g id="SVGRepo_iconCarrier"> <defs> <clipPath id="a"> <path d="m148.09 148.09h503.81v503.81h-503.81z"/> </clipPath> </defs> <g clip-path="url(#ffffffa)" fill="none" stroke="#ffffff" stroke-linecap="round" stroke-miterlimit="10" stroke-width="1.024"> <path transform="matrix(3.936 0 0 3.936 148.09 148.09)" d="m80 68c8.4794 0.023819 16.604 3.4031 22.601 9.3994 5.9963 5.9953 9.3746 14.121 9.3984 22.601v16h-96v-16c0.023818-8.4794 3.4031-16.605 9.3984-22.601 5.9963-5.9963 14.121-9.3756 22.602-9.3994"/> <path transform="matrix(3.936 0 0 3.936 148.09 148.09)" d="m94 42c0 16.569-13.432 30-29.999 30-16.569 0-30-13.432-30-30s13.432-30 30-30c16.568 0 29.999 13.432 29.999 30"/> </g> </g>
</svg>