<svg width="48" height="48" viewBox="0 0 48 48" fill="none" xmlns="http://www.w3.org/2000/svg">
  <path d="M16 6C16 4.89543 16.8954 4 18 4H34C35.1046 4 36 4.89543 36 6V30C36 31.1046 35.1046 32 34 32H18C16.8954 32 16 31.1046 16 30V6Z" fill="url(#paint0_linear)"/>
  <path d="M12 12C12 10.8954 12.8954 10 14 10H30C31.1046 10 32 10.8954 32 12V36C32 37.1046 31.1046 38 30 38H14C12.8954 38 12 37.1046 12 36V12Z" fill="url(#paint1_linear)"/>
  <path d="M18 20H26" stroke="white" stroke-width="2.5" stroke-linecap="round"/>
  <path d="M18 26H26" stroke="white" stroke-width="2.5" stroke-linecap="round"/>
  <circle cx="28" cy="34" r="10" fill="#10b981" />
  <path d="M25 34.5L27 36.5L31.5 31.5" stroke="white" stroke-width="2.5" stroke-linecap="round" stroke-linejoin="round"/>
  <defs>
    <linearGradient id="paint0_linear" x1="16" y1="4" x2="36" y2="32" gradientUnits="userSpaceOnUse">
      <stop stop-color="#818cf8" stop-opacity="0.85"/>
      <stop offset="1" stop-color="#c084fc" stop-opacity="0.85"/>
    </linearGradient>
    <linearGradient id="paint1_linear" x1="12" y1="10" x2="32" y2="38" gradientUnits="userSpaceOnUse">
      <stop stop-color="#4f46e5" stop-opacity="0.95"/>
      <stop offset="1" stop-color="#9333ea" stop-opacity="0.95"/>
    </linearGradient>
  </defs>
</svg>